<svg xmlns="http://www.w3.org/2000/svg" viewBox="0 0 1280 560" preserveAspectRatio="xMidYMid slice"><rect width="1280" height="560" fill="#c2a877"/><path d="M848 382 q 236 -45 395 50" stroke="#b09265" stroke-width="10" fill="none" opacity="0.6"/><path d="M592 514 q 337 74 341 -18" stroke="#b09265" stroke-width="11" fill="none" opacity="0.6"/><path d="M676 173 q 331 28 380 -39" stroke="#b09265" stroke-width="17" fill="none" opacity="0.6"/><path d="M5 113 q 167 49 602 -52" stroke="#b09265" stroke-width="22" fill="none" opacity="0.6"/><path d="M108 298 q 204 -23 671 41" stroke="#b09265" stroke-width="23" fill="none" opacity="0.6"/><path d="M79 273 q 207 21 443 -17" stroke="#b09265" stroke-width="11" fill="none" opacity="0.6"/><path d="M308 5 q 310 -66 493 48" stroke="#b09265" stroke-width="25" fill="none" opacity="0.6"/><path d="M184 24 q 221 28 676 56" stroke="#b09265" stroke-width="13" fill="none" opacity="0.6"/><path d="M1122 3 q 162 68 401 54" stroke="#b09265" stroke-width="16" fill="none" opacity="0.6"/><path d="M576 8 q 142 -46 576 57" stroke="#b09265" stroke-width="10" fill="none" opacity="0.6"/><circle cx="1025" cy="86" r="30" fill="#54744a" opacity="0.88"/><circle cx="140" cy="407" r="18" fill="#3e5734" opacity="0.93"/><circle cx="297" cy="176" r="31" fill="#3e5734" opacity="0.76"/><circle cx="1136" cy="152" r="20" fill="#3e5734" opacity="0.78"/><circle cx="88" cy="374" r="33" fill="#3e5734" opacity="0.97"/><circle cx="225" cy="374" r="26" fill="#2f4527" opacity="0.85"/><circle cx="1176" cy="18" r="24" fill="#4a6a3d" opacity="0.75"/><circle cx="228" cy="218" r="19" fill="#54744a" opacity="0.82"/><circle cx="181" cy="314" r="32" fill="#4a6a3d" opacity="0.78"/><circle cx="112" cy="26" r="24" fill="#54744a" opacity="0.87"/><circle cx="508" cy="67" r="25" fill="#2f4527" opacity="0.77"/><circle cx="284" cy="297" r="17" fill="#4a6a3d" opacity="0.76"/><circle cx="1242" cy="151" r="12" fill="#3e5734" opacity="0.77"/><circle cx="602" cy="15" r="23" fill="#4a6a3d" opacity="0.79"/><circle cx="1150" cy="284" r="16" fill="#3e5734" opacity="0.94"/><circle cx="134" cy="430" r="26" fill="#2f4527" opacity="0.93"/><circle cx="714" cy="101" r="13" fill="#4a6a3d" opacity="0.88"/><circle cx="354" cy="86" r="17" fill="#2f4527" opacity="0.96"/><circle cx="1211" cy="558" r="24" fill="#3e5734" opacity="0.79"/><circle cx="987" cy="268" r="29" fill="#3e5734" opacity="0.99"/><circle cx="58" cy="446" r="29" fill="#4a6a3d" opacity="0.88"/><circle cx="1100" cy="67" r="32" fill="#4a6a3d" opacity="0.77"/><circle cx="211" cy="102" r="34" fill="#54744a" opacity="0.86"/><circle cx="1003" cy="54" r="33" fill="#3e5734" opacity="0.84"/><circle cx="497" cy="36" r="31" fill="#3e5734" opacity="0.90"/><circle cx="1205" cy="70" r="14" fill="#2f4527" opacity="0.76"/><circle cx="371" cy="86" r="14" fill="#3e5734" opacity="0.84"/><circle cx="1096" cy="486" r="12" fill="#3e5734" opacity="0.83"/><circle cx="658" cy="8" r="26" fill="#54744a" opacity="0.90"/><circle cx="282" cy="108" r="23" fill="#2f4527" opacity="0.86"/><circle cx="265" cy="196" r="19" fill="#3e5734" opacity="0.78"/><circle cx="245" cy="76" r="32" fill="#3e5734" opacity="0.84"/><circle cx="48" cy="478" r="32" fill="#2f4527" opacity="0.84"/><circle cx="166" cy="241" r="12" fill="#4a6a3d" opacity="0.94"/><circle cx="404" cy="15" r="26" fill="#4a6a3d" opacity="0.99"/><circle cx="45" cy="105" r="28" fill="#54744a" opacity="0.76"/><circle cx="120" cy="281" r="16" fill="#4a6a3d" opacity="0.76"/><circle cx="825" cy="7" r="21" fill="#3e5734" opacity="0.76"/><circle cx="1007" cy="355" r="24" fill="#54744a" opacity="0.80"/><circle cx="1250" cy="466" r="26" fill="#54744a" opacity="0.80"/><circle cx="823" cy="60" r="22" fill="#3e5734" opacity="0.79"/><circle cx="1113" cy="27" r="18" fill="#2f4527" opacity="0.93"/><circle cx="281" cy="87" r="22" fill="#54744a" opacity="0.99"/><circle cx="1227" cy="394" r="18" fill="#4a6a3d" opacity="0.77"/><circle cx="1131" cy="431" r="27" fill="#2f4527" opacity="0.97"/><circle cx="1028" cy="101" r="26" fill="#3e5734" opacity="0.82"/><circle cx="1092" cy="210" r="14" fill="#2f4527" opacity="0.75"/><circle cx="644" cy="43" r="14" fill="#2f4527" opacity="0.83"/><circle cx="196" cy="521" r="24" fill="#54744a" opacity="0.85"/><circle cx="1201" cy="518" r="16" fill="#4a6a3d" opacity="0.84"/><circle cx="1161" cy="186" r="31" fill="#2f4527" opacity="0.89"/><circle cx="19" cy="313" r="33" fill="#3e5734" opacity="0.82"/><circle cx="1070" cy="437" r="14" fill="#4a6a3d" opacity="0.82"/><circle cx="1058" cy="462" r="27" fill="#2f4527" opacity="0.79"/><circle cx="1230" cy="52" r="29" fill="#4a6a3d" opacity="0.98"/><circle cx="53" cy="190" r="29" fill="#3e5734" opacity="0.86"/><circle cx="1112" cy="137" r="25" fill="#2f4527" opacity="0.88"/><circle cx="1164" cy="433" r="12" fill="#3e5734" opacity="0.98"/><circle cx="762" cy="62" r="23" fill="#54744a" opacity="0.97"/><circle cx="1138" cy="101" r="17" fill="#3e5734" opacity="0.97"/><circle cx="24" cy="552" r="22" fill="#2f4527" opacity="0.99"/><circle cx="354" cy="28" r="13" fill="#2f4527" opacity="0.91"/><circle cx="265" cy="338" r="21" fill="#54744a" opacity="0.76"/><circle cx="85" cy="321" r="17" fill="#2f4527" opacity="0.97"/><circle cx="1189" cy="390" r="28" fill="#2f4527" opacity="0.96"/><circle cx="67" cy="406" r="16" fill="#4a6a3d" opacity="0.85"/><circle cx="370" cy="96" r="28" fill="#54744a" opacity="0.88"/><circle cx="1254" cy="355" r="29" fill="#3e5734" opacity="1.00"/><circle cx="120" cy="541" r="26" fill="#4a6a3d" opacity="0.98"/><circle cx="211" cy="211" r="12" fill="#2f4527" opacity="0.87"/><circle cx="252" cy="260" r="21" fill="#4a6a3d" opacity="0.81"/><circle cx="1145" cy="164" r="29" fill="#3e5734" opacity="0.78"/><circle cx="429" cy="91" r="13" fill="#2f4527" opacity="0.75"/><circle cx="722" cy="77" r="15" fill="#54744a" opacity="0.93"/><circle cx="361" cy="60" r="19" fill="#2f4527" opacity="0.88"/><circle cx="1055" cy="528" r="25" fill="#3e5734" opacity="0.79"/><circle cx="1117" cy="320" r="20" fill="#54744a" opacity="0.82"/><circle cx="867" cy="106" r="13" fill="#4a6a3d" opacity="0.96"/><circle cx="133" cy="417" r="28" fill="#2f4527" opacity="0.77"/><circle cx="242" cy="330" r="25" fill="#54744a" opacity="0.75"/><circle cx="891" cy="80" r="24" fill="#4a6a3d" opacity="0.99"/><circle cx="1197" cy="482" r="17" fill="#3e5734" opacity="0.81"/><circle cx="16" cy="531" r="15" fill="#3e5734" opacity="0.80"/><circle cx="1250" cy="104" r="24" fill="#4a6a3d" opacity="0.92"/><circle cx="381" cy="75" r="28" fill="#4a6a3d" opacity="0.79"/><circle cx="949" cy="59" r="30" fill="#54744a" opacity="0.96"/><circle cx="166" cy="417" r="22" fill="#3e5734" opacity="0.95"/><circle cx="1248" cy="153" r="32" fill="#54744a" opacity="0.92"/><circle cx="1097" cy="508" r="15" fill="#3e5734" opacity="0.93"/><circle cx="896" cy="81" r="30" fill="#4a6a3d" opacity="0.94"/><circle cx="13" cy="337" r="28" fill="#54744a" opacity="0.97"/><circle cx="167" cy="333" r="34" fill="#4a6a3d" opacity="0.98"/><circle cx="1152" cy="261" r="21" fill="#3e5734" opacity="0.90"/><circle cx="970" cy="71" r="21" fill="#54744a" opacity="0.81"/><circle cx="86" cy="214" r="17" fill="#3e5734" opacity="0.89"/><circle cx="163" cy="95" r="33" fill="#4a6a3d" opacity="0.75"/><circle cx="597" cy="518" r="4" fill="#5d7a4b" opacity="0.60"/><circle cx="474" cy="201" r="5" fill="#5d7a4b" opacity="0.52"/><circle cx="398" cy="181" r="6" fill="#5d7a4b" opacity="0.51"/><circle cx="681" cy="253" r="7" fill="#5d7a4b" opacity="0.49"/><circle cx="500" cy="372" r="12" fill="#5d7a4b" opacity="0.49"/><circle cx="980" cy="257" r="11" fill="#5d7a4b" opacity="0.51"/><circle cx="390" cy="250" r="8" fill="#5d7a4b" opacity="0.84"/><circle cx="488" cy="504" r="4" fill="#5d7a4b" opacity="0.67"/><circle cx="690" cy="188" r="11" fill="#5d7a4b" opacity="0.62"/><circle cx="914" cy="174" r="10" fill="#5d7a4b" opacity="0.58"/><circle cx="640" cy="188" r="7" fill="#5d7a4b" opacity="0.55"/><circle cx="541" cy="303" r="12" fill="#5d7a4b" opacity="0.82"/><circle cx="386" cy="175" r="5" fill="#5d7a4b" opacity="0.40"/><circle cx="877" cy="357" r="9" fill="#5d7a4b" opacity="0.69"/><circle cx="758" cy="398" r="4" fill="#5d7a4b" opacity="0.68"/><circle cx="562" cy="470" r="9" fill="#5d7a4b" opacity="0.47"/><circle cx="364" cy="270" r="7" fill="#5d7a4b" opacity="0.52"/><circle cx="464" cy="327" r="5" fill="#5d7a4b" opacity="0.41"/><circle cx="879" cy="197" r="4" fill="#5d7a4b" opacity="0.71"/><circle cx="485" cy="432" r="5" fill="#5d7a4b" opacity="0.68"/><circle cx="712" cy="185" r="10" fill="#5d7a4b" opacity="0.72"/><circle cx="587" cy="421" r="11" fill="#5d7a4b" opacity="0.43"/><circle cx="452" cy="263" r="5" fill="#5d7a4b" opacity="0.69"/><circle cx="454" cy="192" r="11" fill="#5d7a4b" opacity="0.64"/><circle cx="307" cy="308" r="5" fill="#5d7a4b" opacity="0.66"/><circle cx="960" cy="264" r="5" fill="#5d7a4b" opacity="0.40"/><circle cx="791" cy="406" r="6" fill="#5d7a4b" opacity="0.64"/><circle cx="661" cy="547" r="8" fill="#5d7a4b" opacity="0.49"/><circle cx="645" cy="460" r="4" fill="#5d7a4b" opacity="0.73"/><circle cx="384" cy="218" r="4" fill="#5d7a4b" opacity="0.74"/><circle cx="306" cy="491" r="11" fill="#5d7a4b" opacity="0.41"/><circle cx="353" cy="500" r="7" fill="#5d7a4b" opacity="0.53"/><circle cx="959" cy="275" r="12" fill="#5d7a4b" opacity="0.43"/><circle cx="863" cy="530" r="7" fill="#5d7a4b" opacity="0.70"/><circle cx="825" cy="224" r="5" fill="#5d7a4b" opacity="0.44"/><circle cx="520" cy="283" r="4" fill="#5d7a4b" opacity="0.61"/><circle cx="980" cy="214" r="8" fill="#5d7a4b" opacity="0.67"/><circle cx="400" cy="522" r="12" fill="#5d7a4b" opacity="0.80"/><circle cx="563" cy="193" r="4" fill="#5d7a4b" opacity="0.42"/><circle cx="380" cy="556" r="6" fill="#5d7a4b" opacity="0.74"/><circle cx="317" cy="254" r="7" fill="#5d7a4b" opacity="0.48"/><circle cx="893" cy="147" r="10" fill="#5d7a4b" opacity="0.40"/><circle cx="960" cy="298" r="5" fill="#5d7a4b" opacity="0.46"/><circle cx="445" cy="455" r="11" fill="#5d7a4b" opacity="0.64"/><circle cx="625" cy="493" r="11" fill="#5d7a4b" opacity="0.67"/><circle cx="529" cy="220" r="11" fill="#5d7a4b" opacity="0.85"/><circle cx="753" cy="151" r="11" fill="#5d7a4b" opacity="0.66"/><circle cx="445" cy="349" r="6" fill="#5d7a4b" opacity="0.61"/><circle cx="735" cy="311" r="6" fill="#5d7a4b" opacity="0.55"/><circle cx="937" cy="168" r="4" fill="#5d7a4b" opacity="0.46"/></svg>