<svg xmlns="http://www.w3.org/2000/svg" viewBox="0 0 800 600" preserveAspectRatio="xMidYMid slice"><rect width="800" height="600" fill="#eef0e6"/><rect y="380" width="800" height="220" fill="#b5c2a5" opacity="0.55"/><rect x="64" y="0" width="232" height="600" fill="#5e6b56" opacity="0.9"/><rect x="506" y="60" width="169" height="330" rx="4" fill="#2c3527" opacity="0.85"/><rect x="520" y="80" width="86" height="290" rx="3" fill="#eef0e6" opacity="0.7"/><line x1="395" y1="0" x2="395" y2="147" stroke="#2c3527" stroke-width="3"/><circle cx="395" cy="207" r="18" fill="#2c3527"/><rect x="210" y="398" width="192" height="84" rx="10" fill="#2c3527" opacity="0.57"/><rect x="542" y="376" width="186" height="129" rx="10" fill="#2c3527" opacity="0.25"/><rect x="301" y="388" width="134" height="104" rx="10" fill="#2c3527" opacity="0.40"/><rect x="680" y="430" width="34" height="50" rx="6" fill="#2c3527" opacity="0.8"/><ellipse cx="701" cy="404" rx="10" ry="23" fill="#5e6b56" opacity="0.9" transform="rotate(6 697 400)"/><ellipse cx="698" cy="363" rx="11" ry="21" fill="#5e6b56" opacity="0.9" transform="rotate(-16 697 400)"/><ellipse cx="684" cy="389" rx="12" ry="22" fill="#5e6b56" opacity="0.9" transform="rotate(36 697 400)"/><ellipse cx="716" cy="415" rx="16" ry="26" fill="#5e6b56" opacity="0.9" transform="rotate(-19 697 400)"/><ellipse cx="715" cy="392" rx="14" ry="20" fill="#5e6b56" opacity="0.9" transform="rotate(24 697 400)"/><rect x="120" y="97" width="70" height="90" rx="3" fill="#eef0e6" stroke="#2c3527" stroke-width="4"/></svg>