<svg xmlns="http://www.w3.org/2000/svg" viewBox="0 0 800 600" preserveAspectRatio="xMidYMid slice"><rect width="800" height="600" fill="#8c7a5e"/><rect y="380" width="800" height="220" fill="#c8a56a" opacity="0.55"/><rect x="66" y="0" width="253" height="600" fill="#2e2c28" opacity="0.9"/><rect x="528" y="60" width="111" height="330" rx="4" fill="#efe9dd" opacity="0.85"/><rect x="542" y="80" width="82" height="290" rx="3" fill="#8c7a5e" opacity="0.7"/><line x1="328" y1="0" x2="328" y2="145" stroke="#efe9dd" stroke-width="3"/><circle cx="328" cy="196" r="27" fill="#efe9dd"/><rect x="65" y="388" width="155" height="105" rx="10" fill="#efe9dd" opacity="0.50"/><rect x="87" y="406" width="165" height="69" rx="10" fill="#efe9dd" opacity="0.38"/><rect x="170" y="388" width="198" height="104" rx="10" fill="#efe9dd" opacity="0.40"/><rect x="696" y="430" width="34" height="50" rx="6" fill="#efe9dd" opacity="0.8"/><ellipse cx="697" cy="415" rx="14" ry="34" fill="#2e2c28" opacity="0.9" transform="rotate(34 713 400)"/><ellipse cx="710" cy="377" rx="9" ry="32" fill="#2e2c28" opacity="0.9" transform="rotate(15 713 400)"/><ellipse cx="707" cy="396" rx="13" ry="18" fill="#2e2c28" opacity="0.9" transform="rotate(-35 713 400)"/><ellipse cx="732" cy="372" rx="15" ry="30" fill="#2e2c28" opacity="0.9" transform="rotate(0 713 400)"/><ellipse cx="709" cy="384" rx="13" ry="33" fill="#2e2c28" opacity="0.9" transform="rotate(-23 713 400)"/><rect x="255" y="117" width="70" height="90" rx="3" fill="#8c7a5e" stroke="#efe9dd" stroke-width="4"/></svg>